<svg width="50" height="50" viewBox="0 0 50 50" fill="none" xmlns="http://www.w3.org/2000/svg">
<circle cx="25" cy="25" r="24" stroke="#7C3FEF" stroke-width="2"/>
<path d="M25.8535 30.0786H23.9565L23.854 12.1172H25.9731L25.8535 30.0786ZM23.6147 35.8037C23.6147 35.4163 23.7401 35.0916 23.9907 34.8296C24.2414 34.5562 24.5832 34.4194 25.0161 34.4194C25.4491 34.4194 25.7909 34.5562 26.0415 34.8296C26.3035 35.0916 26.4346 35.4163 26.4346 35.8037C26.4346 36.1797 26.3035 36.4987 26.0415 36.7607C25.7909 37.0114 25.4491 37.1367 25.0161 37.1367C24.5832 37.1367 24.2414 37.0114 23.9907 36.7607C23.7401 36.4987 23.6147 36.1797 23.6147 35.8037Z" fill="#7C3FEF"/>
</svg>
