<svg width="600" height="315" viewBox="0 0 600 315" fill="none" xmlns="http://www.w3.org/2000/svg">
<path d="M0 143L12.5 121.349H37.5L50 143L37.5 164.651H12.5L0 143Z" fill="#8B9094"/>
<path d="M550 185L562.5 163.349H587.5L600 185L587.5 206.651H562.5L550 185Z" fill="#A06652"/>
<path d="M525 185L537.5 163.349H562.5L575 185L562.5 206.651H537.5L525 185Z" fill="#A06652"/>
<path d="M330 185L397.5 163.349H532.5L600 185L532.5 206.651H397.5L330 185Z" fill="#A06652"/>
<path d="M501 185L513.5 163.349H538.5L551 185L538.5 206.651H513.5L501 185Z" fill="#A06652"/>
<path d="M24 143L36.5 121.349H61.5L74 143L61.5 164.651H36.5L24 143Z" fill="#8B9094"/>
<path d="M40 143L52.5 121.349H77.5L90 143L77.5 164.651H52.5L40 143Z" fill="#8B9094"/>
<path d="M2 143L73.25 121.349L215.75 121.349L287 143L215.75 164.651H73.25L2 143Z" fill="#8B9094"/>
<path d="M200 25L250 3.34937L350 3.34937L400 25L350 46.6506L250 46.6506L200 25Z" fill="#F0B30B"/>
<rect x="200" y="25" width="200" height="290" fill="#FEC223"/>
<rect x="400" y="185" width="200" height="130" fill="#BB7760"/>
<rect y="143" width="200" height="172" fill="#A0A7AD"/>
<rect y="143" width="200" height="172" fill="#A0A7AD"/>
<path d="M307.492 102H297.59V70.4766L287.863 73.3184V65.8184L306.584 59.3438H307.492V102Z" fill="white"/>
<path d="M500.631 224.541H505.289C508.98 224.541 510.826 222.734 510.826 219.121C510.826 217.715 510.387 216.572 509.508 215.693C508.629 214.795 507.389 214.346 505.787 214.346C504.479 214.346 503.336 214.727 502.359 215.488C501.402 216.25 500.924 217.197 500.924 218.33H491.051C491.051 216.084 491.676 214.082 492.926 212.324C494.176 210.566 495.904 209.199 498.111 208.223C500.338 207.227 502.779 206.729 505.436 206.729C510.182 206.729 513.912 207.812 516.627 209.98C519.342 212.148 520.699 215.127 520.699 218.916C520.699 220.752 520.133 222.49 519 224.131C517.887 225.752 516.256 227.07 514.107 228.086C516.373 228.906 518.15 230.156 519.439 231.836C520.729 233.496 521.373 235.557 521.373 238.018C521.373 241.826 519.908 244.873 516.979 247.158C514.049 249.443 510.201 250.586 505.436 250.586C502.643 250.586 500.045 250.059 497.643 249.004C495.26 247.93 493.453 246.455 492.223 244.58C490.992 242.686 490.377 240.537 490.377 238.135H500.309C500.309 239.443 500.836 240.576 501.891 241.533C502.945 242.49 504.244 242.969 505.787 242.969C507.525 242.969 508.912 242.49 509.947 241.533C510.982 240.557 511.5 239.316 511.5 237.812C511.5 235.664 510.963 234.141 509.889 233.242C508.814 232.344 507.33 231.895 505.436 231.895H500.631V224.541Z" fill="white"/>
<path d="M116.373 215H86.6074V208.555L100.318 194.141C103.697 190.293 105.387 187.236 105.387 184.971C105.387 183.135 104.986 181.738 104.186 180.781C103.385 179.824 102.223 179.346 100.699 179.346C99.1953 179.346 97.9746 179.99 97.0371 181.279C96.0996 182.549 95.6309 184.141 95.6309 186.055H85.7285C85.7285 183.438 86.3828 181.025 87.6914 178.818C89 176.592 90.8164 174.854 93.1406 173.604C95.4648 172.354 98.0625 171.729 100.934 171.729C105.543 171.729 109.088 172.793 111.568 174.922C114.068 177.051 115.318 180.107 115.318 184.092C115.318 185.771 115.006 187.412 114.381 189.014C113.756 190.596 112.779 192.266 111.451 194.023C110.143 195.762 108.023 198.096 105.094 201.025L99.5859 207.383H116.373V215Z" fill="white"/>
</svg>
